<svg width="273" height="171" viewBox="0 0 273 171" fill="none" xmlns="http://www.w3.org/2000/svg">
<g filter="url(#filter0_d_2003_2)">
<rect x="4" width="265" height="163" rx="30" fill="#347DE0"/>
<rect x="4" width="265" height="163" rx="30" fill="black" fill-opacity="0.2"/>
</g>
<path d="M57.2109 106V55.26H59.7909V106H57.2109ZM62.3709 106V55.26H70.1109V106H62.3709ZM72.6909 106V55.26H75.2709V106H72.6909ZM83.0109 106V55.26H90.7509V106H83.0109ZM93.3309 106V55.26H95.9109V106H93.3309ZM98.5312 106V55.26H101.111V106H98.5312ZM103.691 106V55.26H111.431V106H103.691ZM114.011 106V55.26H116.591V106H114.011ZM124.331 106V55.26H132.071V106H124.331ZM134.651 106V55.26H137.231V106H134.651ZM144.276 106V55.0909H164.362C168.206 55.0909 171.487 55.7786 174.205 57.1541C176.94 58.513 179.019 60.4437 180.445 62.946C181.886 65.4318 182.607 68.3568 182.607 71.7209C182.607 75.1016 181.878 78.0099 180.42 80.446C178.961 82.8655 176.848 84.7216 174.081 86.0142C171.33 87.3068 167.999 87.9531 164.088 87.9531H150.64V79.3026H162.348C164.403 79.3026 166.11 79.0208 167.469 78.4574C168.828 77.8939 169.839 77.0488 170.501 75.9219C171.181 74.795 171.521 73.3946 171.521 71.7209C171.521 70.0305 171.181 68.6053 170.501 67.4453C169.839 66.2853 168.819 65.407 167.444 64.8104C166.085 64.1972 164.37 63.8906 162.298 63.8906H155.04V106H144.276ZM171.769 82.8324L184.422 106H172.54L160.161 82.8324H171.769Z" fill="white"/>
<path d="M194.046 106.36C194.046 106.451 194.03 106.536 193.997 106.614C193.965 106.692 193.919 106.761 193.86 106.819C193.802 106.875 193.733 106.919 193.655 106.951C193.577 106.984 193.494 107 193.406 107H190.545C190.275 107 190.001 106.971 189.725 106.912C189.448 106.854 189.179 106.764 188.919 106.644C188.662 106.52 188.419 106.364 188.191 106.175C187.964 105.986 187.763 105.763 187.591 105.506C187.422 105.245 187.288 104.949 187.19 104.617C187.093 104.282 187.044 103.909 187.044 103.499V99.998H188.313V103.499C188.313 103.857 188.362 104.16 188.46 104.407C188.561 104.655 188.688 104.861 188.841 105.027C188.994 105.193 189.161 105.324 189.344 105.418C189.526 105.512 189.699 105.582 189.861 105.628C190.027 105.674 190.172 105.703 190.296 105.716C190.423 105.726 190.506 105.73 190.545 105.73H192.776V99.998H194.046V106.36ZM196.805 107H195.535V99.998H196.805V107Z" fill="white"/>
<path d="M185.635 98.0511V89.5746L206.889 56.0909H214.197V67.8239H209.872L196.473 89.0277V89.4254H226.676V98.0511H185.635ZM210.07 107V95.4659L210.269 91.7124V56.0909H220.362V107H210.07Z" fill="white"/>
<defs>
<filter id="filter0_d_2003_2" x="0" y="0" width="273" height="171" filterUnits="userSpaceOnUse" color-interpolation-filters="sRGB">
<feFlood flood-opacity="0" result="BackgroundImageFix"/>
<feColorMatrix in="SourceAlpha" type="matrix" values="0 0 0 0 0 0 0 0 0 0 0 0 0 0 0 0 0 0 127 0" result="hardAlpha"/>
<feOffset dy="4"/>
<feGaussianBlur stdDeviation="2"/>
<feComposite in2="hardAlpha" operator="out"/>
<feColorMatrix type="matrix" values="0 0 0 0 0 0 0 0 0 0 0 0 0 0 0 0 0 0 0.25 0"/>
<feBlend mode="normal" in2="BackgroundImageFix" result="effect1_dropShadow_2003_2"/>
<feBlend mode="normal" in="SourceGraphic" in2="effect1_dropShadow_2003_2" result="shape"/>
</filter>
</defs>
</svg>
